<svg width="24" height="24" viewBox="0 0 24 24" fill="none" xmlns="http://www.w3.org/2000/svg">
<path d="M8 10.7203C8.10506 10.7203 8.20909 10.6981 8.30615 10.655C8.40321 10.612 8.4914 10.5488 8.56568 10.4692C8.63997 10.3896 8.6989 10.2951 8.7391 10.1912C8.77931 10.0872 8.8 9.9757 8.8 9.86314C8.8 9.75058 8.77931 9.63912 8.7391 9.53513C8.6989 9.43114 8.63997 9.33664 8.56568 9.25705C8.4914 9.17746 8.40321 9.11432 8.30615 9.07125C8.20909 9.02817 8.10506 9.006 8 9.006H7.2C6.35158 9.006 5.53789 9.36699 4.93782 10.0096C4.33775 10.6522 4.00042 11.5238 4 12.4329L4 17.5731C4.00042 18.4822 4.33775 19.3538 4.93782 19.9964C5.53789 20.639 6.35158 21 7.2 21H16.8C17.6484 21 18.4621 20.639 19.0622 19.9964C19.6622 19.3538 19.9996 18.4822 20 17.5731V12.4269C19.9996 11.5178 19.6622 10.6462 19.0622 10.0036C18.4621 9.36099 17.6484 9 16.8 9H16C15.8949 8.99998 15.7909 9.02214 15.6938 9.06521C15.5967 9.10828 15.5085 9.17141 15.4342 9.251C15.3599 9.3306 15.301 9.4251 15.2608 9.5291C15.2206 9.6331 15.1999 9.74457 15.1999 9.85714C15.1999 9.96972 15.2206 10.0812 15.2608 10.1852C15.301 10.2892 15.3599 10.3837 15.4342 10.4633C15.5085 10.5429 15.5967 10.606 15.6938 10.6491C15.7909 10.6921 15.8949 10.7143 16 10.7143H16.8C17.2241 10.7143 17.6308 10.8947 17.9308 11.2158C18.2308 11.5369 18.3996 11.9725 18.4 12.4269V17.5731C18.3998 18.0277 18.2311 18.4635 17.9311 18.7848C17.6311 19.1061 17.2242 19.2866 16.8 19.2866H7.2C6.77565 19.2866 6.36869 19.106 6.06863 18.7845C5.76857 18.463 5.6 18.0269 5.6 17.5723V12.4329C5.60042 11.9785 5.76918 11.5429 6.06919 11.2218C6.36921 10.9007 6.77593 10.7203 7.2 10.7203H8Z" fill="#4E6C16"/>
<path d="M11.9999 4.6665C12.611 4.6665 12.9166 4.97205 12.9166 5.58316V14.7498C12.9166 15.3609 12.611 15.6665 11.9999 15.6665C11.3888 15.6665 11.0833 15.3609 11.0833 14.7498V5.58316C11.0833 4.97205 11.3888 4.6665 11.9999 4.6665Z" fill="#4E6C16"/>
<path d="M9.89809 7.14813C9.7252 7.31511 9.49365 7.4075 9.25331 7.40541C9.01296 7.40333 8.78305 7.30692 8.61309 7.13696C8.44313 6.96701 8.34673 6.73709 8.34464 6.49675C8.34255 6.2564 8.43494 6.02485 8.60192 5.85196L11.3519 3.10196C11.5238 2.93011 11.7569 2.83357 12 2.83357C12.2431 2.83357 12.4762 2.93011 12.6481 3.10196L15.3981 5.85196C15.4856 5.93652 15.5555 6.03767 15.6035 6.14951C15.6516 6.26135 15.6768 6.38163 15.6779 6.50335C15.679 6.62506 15.6558 6.74577 15.6097 6.85842C15.5636 6.97108 15.4955 7.07342 15.4095 7.15949C15.3234 7.24556 15.221 7.31363 15.1084 7.35972C14.9957 7.40581 14.875 7.429 14.7533 7.42794C14.6316 7.42689 14.5113 7.4016 14.3995 7.35356C14.2876 7.30551 14.1865 7.23568 14.1019 7.14813L12 5.04621L9.89809 7.14813Z" fill="#4E6C16"/>
</svg>
