<svg width="24" height="24" viewBox="0 0 24 24" fill="none" xmlns="http://www.w3.org/2000/svg">
<path d="M17.6107 13.219C18.6884 13.219 19.5836 14.1031 19.3461 15.1543C19.11 16.1993 18.6834 17.1976 18.0821 18.0975C17.1173 19.5415 15.7459 20.667 14.1413 21.3316C12.5368 21.9962 10.7713 22.1701 9.06791 21.8313C7.36457 21.4925 5.79994 20.6561 4.5719 19.4281C3.34385 18.2001 2.50755 16.6354 2.16873 14.9321C1.82991 13.2287 2.0038 11.4632 2.66842 9.85865C3.33303 8.25414 4.45851 6.88273 5.90254 5.91786C6.80239 5.31661 7.80074 4.89004 8.84566 4.65393C9.89685 4.41639 10.781 5.31164 10.781 6.38933V8.34066C10.781 11.0349 12.9651 13.219 15.6593 13.219H17.6107Z" fill="#4E6C16"/>
<path d="M13.708 4.95927C13.708 3.05484 15.3089 1.45062 17.0683 2.17941C18.1337 2.6207 19.1017 3.2675 19.9171 4.08289C20.7325 4.89828 21.3793 5.86629 21.8206 6.93165C22.5494 8.69111 20.9452 10.292 19.0407 10.292H18.0985C15.6737 10.292 13.708 8.3263 13.708 5.9015V4.95927Z" fill="#4E6C16"/>
</svg>
