<svg width="265" height="38" viewBox="0 0 265 38" fill="none" xmlns="http://www.w3.org/2000/svg">
<path d="M5.04855 12.0874L16.1752 23.3006C17.021 24.1529 17.2738 25.4347 16.8162 26.5483C16.3586 27.6619 15.2803 28.3878 14.0841 28.3878H5.91482V35.0187C5.91482 36.6645 4.59074 37.9988 2.95769 37.9988C1.32464 37.9988 0.000556371 36.6644 0.000556371 35.0187V25.4074C0.000556371 23.7615 1.32464 22.4273 2.95769 22.4273H6.94511L0.867093 16.302C-0.288074 15.1383 -0.288074 13.2514 0.867093 12.0875C2.02188 10.9238 3.89371 10.9236 5.04855 12.0874ZM26.7999 0.00138576C28.4333 0.00138576 29.7574 1.33576 29.7574 2.9815C29.7574 4.62724 28.4334 5.96161 26.8003 5.96161H10.0971L16.1751 12.0869C17.3303 13.2506 17.3303 15.1375 16.1751 16.3014C15.5977 16.8833 14.841 17.1742 14.084 17.1742C13.3269 17.1742 12.5703 16.8832 11.9928 16.3014L0.866151 5.08821C0.0203783 4.23586 -0.232459 2.95409 0.225169 1.84048C0.682798 0.726872 1.7611 0.000978086 2.95728 0.000978086L26.7999 0.00138576ZM37.8097 10.0599C39.4429 10.0599 40.7668 11.3943 40.7668 13.0401C40.7668 14.6858 39.4428 16.0202 37.8097 16.0202C33.4275 16.0202 29.8621 19.6131 29.8621 24.0296V35.0191C29.8621 36.6649 28.538 37.9992 26.9049 37.9992C25.2719 37.9992 23.9478 36.6648 23.9478 35.0191V13.0401C23.9478 11.3942 25.2719 10.0599 26.9049 10.0599C28.3958 10.0599 29.6252 11.1727 29.8292 12.618C32.0875 11.0091 34.8399 10.0599 37.8097 10.0599ZM54.1628 10.0599C61.8066 10.0599 68.0247 16.3263 68.0247 24.0296C68.0247 25.6754 66.7006 27.0097 65.0676 27.0097H46.7861C47.9616 29.9545 50.8253 32.0388 54.1633 32.0388C56.2863 32.0388 58.2821 31.2059 59.783 29.693C60.9381 28.5292 62.8101 28.5296 63.9652 29.693C65.1204 30.8571 65.12 32.744 63.9652 33.9078C61.3466 36.5463 57.8657 37.9992 54.1631 37.9992C46.5192 37.9992 40.3012 31.7328 40.3012 24.0296C40.3012 16.3263 46.519 10.0599 54.1628 10.0599ZM46.7856 21.0495H61.5403C60.3648 18.1046 57.5012 16.0203 54.1631 16.0203C50.825 16.0203 47.9609 18.1046 46.7856 21.0495ZM89.0572 21.0495C93.6941 21.0495 97.467 24.8514 97.467 29.5246C97.467 34.1978 93.6944 37.9997 89.0572 37.9997H78.1525C76.5193 37.9997 75.1954 36.6654 75.1954 35.0196C75.1954 33.3739 76.5194 32.0395 78.1525 32.0395H89.0572C90.4331 32.0395 91.5524 30.9115 91.5524 29.525C91.5524 28.1385 90.4331 27.0105 89.0572 27.0105H78.1525C73.5156 27.0105 69.7427 23.2085 69.7427 18.5354C69.7427 13.8622 73.5153 10.0602 78.1525 10.0602H89.0572C90.6904 10.0602 92.0144 11.3946 92.0144 13.0403C92.0144 14.6861 90.6903 16.0204 89.0572 16.0204H78.1525C76.7767 16.0204 75.6574 17.1484 75.6574 18.535C75.6574 19.9215 76.7767 21.0495 78.1525 21.0495H89.0572ZM113.011 10.1346C120.634 10.1346 126.836 16.3847 126.836 24.0676V35.0199C126.836 36.6657 125.512 38 123.879 38C122.246 38 120.922 36.6656 120.922 35.0199V24.0676C120.922 19.6718 117.373 16.0956 113.011 16.0956C108.65 16.0956 105.101 19.6719 105.101 24.0676V35.0199C105.101 36.6657 103.777 38 102.144 38C100.511 38 99.1866 36.6656 99.1866 35.0199V2.98231C99.1866 1.33647 100.511 0.00219981 102.144 0.00219981C103.777 0.00219981 105.101 1.33657 105.101 2.98231V12.6509C107.344 11.0676 110.07 10.1346 113.011 10.1346ZM173.175 27.0081C173.175 27.0088 173.175 27.0095 173.176 27.0103V35.0189C173.176 36.6647 171.852 37.999 170.219 37.999C168.586 37.999 167.262 36.6646 167.262 35.0189V28.2437L149.333 10.1758V35.0182C149.333 36.664 148.009 37.9983 146.376 37.9983C144.743 37.9983 143.419 36.6639 143.419 35.0182V2.9806C143.419 1.7751 144.139 0.688387 145.244 0.227257C146.35 -0.233561 147.621 0.0208879 148.467 0.873219L158.297 10.7798L168.127 0.873219C168.973 0.0208743 170.245 -0.234688 171.35 0.227257C172.455 0.688442 173.175 1.77512 173.175 2.9806L173.175 27.0081ZM162.479 14.9956L167.261 19.8145V10.1761L162.479 14.9956ZM200.212 10.0599C201.845 10.0599 203.169 11.3943 203.169 13.0401V35.0191C203.169 36.6649 201.845 37.9992 200.212 37.9992C198.721 37.9992 197.492 36.8868 197.288 35.4411C195.03 37.0501 192.277 37.9992 189.308 37.9992C181.664 37.9992 175.446 31.7328 175.446 24.0296C175.446 16.3263 181.664 10.0599 189.308 10.0599C192.277 10.0599 195.03 11.0091 197.288 12.618C197.492 11.1722 198.721 10.0599 200.212 10.0599ZM189.308 32.039C193.69 32.039 197.255 28.446 197.255 24.0296C197.255 19.6131 193.69 16.0202 189.308 16.0202C184.925 16.0202 181.36 19.6131 181.36 24.0296C181.36 28.446 184.925 32.039 189.308 32.039ZM216.173 10.0599C222.098 10.0599 226.919 14.9185 226.919 20.8899V35.0196C226.919 36.6655 225.595 37.9997 223.961 37.9997C222.328 37.9997 221.004 36.6654 221.004 35.0196V20.8899C221.004 18.205 218.837 16.0206 216.173 16.0206C213.508 16.0206 211.341 18.2046 211.341 20.8899V35.0196C211.341 36.6655 210.017 37.9997 208.384 37.9997C206.751 37.9997 205.427 36.6654 205.427 35.0196V13.0406C205.427 11.3948 206.751 10.0605 208.384 10.0605C209.442 10.0605 210.368 10.6226 210.89 11.4649C212.451 10.5727 214.254 10.0599 216.173 10.0599ZM253.905 0.00138576C255.538 0.00138576 256.863 1.33576 256.863 2.9815V35.0191C256.863 36.6649 255.538 37.9992 253.905 37.9992C252.42 37.9992 251.195 36.895 250.984 35.4574C248.734 37.0563 245.994 37.9992 243.038 37.9992C235.414 37.9992 229.212 31.7491 229.212 24.0662C229.212 16.3833 235.414 10.1332 243.038 10.1332C245.978 10.1332 248.705 11.0661 250.948 12.6494V2.98041C250.948 1.33457 252.272 0.00138576 253.905 0.00138576ZM243.038 32.039C247.4 32.039 250.949 28.4627 250.949 24.067C250.949 19.6714 247.4 16.0951 243.038 16.0951C238.676 16.0951 235.128 19.6714 235.128 24.067C235.128 28.4627 238.676 32.039 243.038 32.039ZM262.043 10.0599C263.676 10.0599 265 11.3943 265 13.0401V35.0191C265 36.6649 263.676 37.9992 262.043 37.9992C260.41 37.9992 259.086 36.6648 259.086 35.0191V13.0401C259.086 11.3942 260.41 10.0599 262.043 10.0599ZM259.311 4.12143C259.237 3.94263 259.182 3.75258 259.145 3.56259C259.104 3.3726 259.086 3.17514 259.086 2.98144C259.086 2.78775 259.104 2.59028 259.145 2.4003C259.182 2.21031 259.237 2.02032 259.311 1.84151C259.385 1.6627 259.477 1.48762 259.585 1.32741C259.692 1.16351 259.814 1.01078 259.951 0.87296C260.087 0.735137 260.239 0.612201 260.401 0.504165C260.56 0.396131 260.734 0.302993 260.912 0.228517C261.089 0.154042 261.278 0.0981634 261.466 0.060893C262.427 -0.136573 263.447 0.183827 264.135 0.873015C264.268 1.01084 264.394 1.16356 264.501 1.32747C264.608 1.48767 264.701 1.66276 264.775 1.84157C264.848 2.02037 264.904 2.21036 264.941 2.40035C264.982 2.59034 265 2.78781 265 2.9815C265 3.17519 264.982 3.37266 264.941 3.56265C264.904 3.75264 264.848 3.94263 264.775 4.12143C264.701 4.30024 264.608 4.47533 264.501 4.63553C264.394 4.79944 264.268 4.95216 264.135 5.08998C263.998 5.22781 263.847 5.35074 263.684 5.45878C263.525 5.56681 263.351 5.65995 263.174 5.73443C262.997 5.8089 262.808 5.86478 262.62 5.90205C262.431 5.94303 262.235 5.96164 262.043 5.96164C261.851 5.96164 261.655 5.94303 261.466 5.90205C261.278 5.86478 261.089 5.80891 260.912 5.73443C260.734 5.65994 260.561 5.5668 260.402 5.45878C260.239 5.35074 260.087 5.22781 259.951 5.08998C259.814 4.95216 259.692 4.79944 259.585 4.63553C259.477 4.47533 259.385 4.30024 259.311 4.12143Z" fill="#4E6C16"/>
</svg>
