<svg width="90" height="90" viewBox="0 0 90 90" fill="none" xmlns="http://www.w3.org/2000/svg">
<g clip-path="url(#clip0_1_1010)">
<path d="M39.2519 88.628C38.708 88.5571 38.2092 88.9375 38.1325 89.4793C34.8597 88.9781 31.7031 88.1244 28.7025 86.9581C28.9065 86.4504 28.6643 85.8718 28.1576 85.6617C24.5811 84.1785 21.2421 82.237 18.214 79.9101C17.7791 79.5758 17.1567 79.6547 16.8186 80.0849C14.2759 78.0399 11.9601 75.7241 9.91509 73.1814C10.3453 72.8433 10.4242 72.2209 10.0899 71.786C7.76302 68.7579 5.82148 65.4189 4.33835 61.8424C4.12822 61.3357 3.54962 61.0935 3.04192 61.2975C1.8756 58.2969 1.02187 55.1403 0.520713 51.8675C1.06251 51.7908 1.44291 51.292 1.37195 50.7481C1.12661 48.8672 1 46.9487 1 45C1 43.0513 1.12661 41.1328 1.37195 39.2519C1.44291 38.708 1.06251 38.2092 0.520714 38.1325C1.02187 34.8597 1.8756 31.7031 3.04193 28.7025C3.54962 28.9065 4.12823 28.6643 4.33835 28.1576C5.82149 24.5811 7.76302 21.2421 10.0899 18.214C10.4242 17.7791 10.3454 17.1567 9.91509 16.8186C11.9601 14.2759 14.2759 11.9601 16.8186 9.91509C17.1567 10.3453 17.7791 10.4242 18.214 10.0899C21.2421 7.76302 24.5811 5.82148 28.1576 4.33835C28.6643 4.12822 28.9065 3.54962 28.7025 3.04192C31.7031 1.8756 34.8597 1.02187 38.1325 0.520713C38.2092 1.06251 38.708 1.44291 39.2519 1.37195C41.1328 1.12661 43.0513 1 45 1C46.9487 1 48.8672 1.12661 50.7481 1.37195C51.292 1.44291 51.7908 1.06251 51.8675 0.520714C55.1403 1.02187 58.2969 1.8756 61.2975 3.04193C61.0935 3.54962 61.3357 4.12823 61.8424 4.33835C65.4189 5.82149 68.7579 7.76302 71.786 10.0899C72.2209 10.4242 72.8433 10.3454 73.1814 9.91509C75.7241 11.9601 78.0399 14.2759 80.0849 16.8186C79.6546 17.1567 79.5758 17.7791 79.9101 18.214C82.237 21.2421 84.1785 24.5811 85.6617 28.1576C85.8718 28.6643 86.4504 28.9065 86.9581 28.7025C88.1244 31.7031 88.9781 34.8597 89.4793 38.1325C88.9375 38.2092 88.5571 38.708 88.6281 39.2519C88.8734 41.1328 89 43.0513 89 45C89 46.9487 88.8734 48.8672 88.628 50.7481C88.5571 51.292 88.9375 51.7908 89.4793 51.8675C88.9781 55.1403 88.1244 58.2969 86.9581 61.2975C86.4504 61.0935 85.8718 61.3357 85.6617 61.8424C84.1785 65.4189 82.237 68.7579 79.9101 71.786C79.5758 72.2209 79.6546 72.8433 80.0849 73.1814C78.0399 75.7241 75.7241 78.0399 73.1814 80.0849C72.8433 79.6546 72.2209 79.5758 71.786 79.9101C68.7579 82.237 65.4189 84.1785 61.8424 85.6617C61.3357 85.8718 61.0935 86.4504 61.2975 86.9581C58.2969 88.1244 55.1403 88.9781 51.8675 89.4793C51.7908 88.9375 51.292 88.5571 50.7481 88.6281C48.8672 88.8734 46.9487 89 45 89C43.0513 89 41.1328 88.8734 39.2519 88.628Z" stroke="#4E6C16" stroke-width="2" stroke-linecap="round" stroke-dasharray="11"/>
<g clip-path="url(#clip1_1_1010)">
<path d="M62 55.7273C62 57.4343 60.6162 58.8182 58.9091 58.8182H31.0909C29.3838 58.8182 28 57.4343 28 55.7273V38.7273C28 37.0202 29.3838 35.6364 31.0909 35.6364H37.2727L40.3636 31H49.6364L52.7273 35.6364H58.9091C60.6162 35.6364 62 37.0202 62 38.7273V55.7273Z" stroke="#4E6C16" stroke-width="2" stroke-linecap="round" stroke-linejoin="round"/>
<path d="M52.0217 46.2869C52.0217 50.1649 48.8779 53.3087 44.9999 53.3087C41.1218 53.3087 37.978 50.1649 37.978 46.2869C37.978 42.4088 41.1218 39.265 44.9999 39.265C48.8779 39.265 52.0217 42.4088 52.0217 46.2869Z" stroke="#4E6C16" stroke-width="2" stroke-linecap="round" stroke-linejoin="round"/>
</g>
</g>
<defs>
<clipPath id="clip0_1_1010">
<rect width="90" height="90" fill="white"/>
</clipPath>
<clipPath id="clip1_1_1010">
<rect width="34" height="27.8182" fill="white" transform="translate(28 31)"/>
</clipPath>
</defs>
</svg>
