<svg width="150" height="150" viewBox="0 0 150 150" fill="none" xmlns="http://www.w3.org/2000/svg">
<g clip-path="url(#clip0_3_2006)">
<g filter="url(#filter0_i_3_2006)">
<path d="M144.721 74.9967C147.038 72.2991 148.661 69.0769 149.451 65.6099C150.24 62.1428 150.172 58.5355 149.251 55.1009C148.331 51.6662 146.586 48.5081 144.169 45.9003C141.752 43.2925 138.735 41.3139 135.38 40.136C136.037 36.6414 135.832 33.0391 134.782 29.6417C133.732 26.2444 131.869 23.1545 129.354 20.6402C126.84 18.126 123.749 16.2632 120.352 15.2136C116.954 14.164 113.352 13.9592 109.858 14.6171C108.681 11.2612 106.702 8.24337 104.095 5.82552C101.487 3.40767 98.3282 1.66291 94.8931 0.742721C91.458 -0.177472 87.8501 -0.245282 84.3829 0.545179C80.9156 1.33564 77.6937 2.96048 74.9969 5.27863C72.2992 2.96208 69.0771 1.3387 65.61 0.549331C62.143 -0.240038 58.5356 -0.171561 55.101 0.748821C51.6664 1.6692 48.5082 3.41369 45.9004 5.83095C43.2926 8.24821 41.314 11.2652 40.1362 14.6203C36.6418 13.9635 33.0399 14.1692 29.643 15.2195C26.246 16.2699 23.1566 18.1331 20.6428 20.6476C18.1289 23.1621 16.2665 26.252 15.217 29.6492C14.1676 33.0464 13.9628 36.6483 14.6205 40.1425C11.2654 41.3204 8.24836 43.299 5.8311 45.9068C3.41384 48.5145 1.66934 51.6727 0.74896 55.1074C-0.171422 58.542 -0.23991 62.1493 0.549459 65.6164C1.33883 69.0835 2.96223 72.3056 5.27879 75.0032C2.96153 77.7008 1.33762 80.9231 0.548031 84.3906C-0.241563 87.858 -0.173015 91.4658 0.747769 94.9007C1.66855 98.3356 3.41373 101.494 5.83182 104.101C8.24991 106.709 11.2679 108.687 14.6237 109.864C13.9655 113.358 14.17 116.96 15.2196 120.358C16.2692 123.755 18.1321 126.845 20.6466 129.359C23.1611 131.873 26.2512 133.736 29.6487 134.785C33.0462 135.834 36.6484 136.038 40.1427 135.38C41.3205 138.735 43.2991 141.752 45.9069 144.169C48.5147 146.586 51.6729 148.331 55.1075 149.251C58.5421 150.171 62.1494 150.24 65.6165 149.451C69.0836 148.661 72.3057 147.038 75.0034 144.721C77.701 147.039 80.9233 148.662 84.3907 149.452C87.8582 150.242 91.4659 150.173 94.9008 149.252C98.3357 148.332 101.494 146.586 104.102 144.168C106.709 141.75 108.687 138.732 109.864 135.376C113.359 136.034 116.961 135.83 120.358 134.78C123.756 133.731 126.846 131.868 129.36 129.353C131.874 126.839 133.737 123.749 134.787 120.352C135.836 116.954 136.041 113.352 135.383 109.857C138.738 108.68 141.756 106.701 144.173 104.093C146.59 101.486 148.335 98.3271 149.255 94.8923C150.175 91.4574 150.243 87.8499 149.453 84.3828C148.663 80.9158 147.039 77.6938 144.721 74.9967Z" fill="#4E6C16"/>
<g filter="url(#filter1_i_3_2006)">
<path d="M61.5368 103.626L40.6952 82.7977C39.9042 82.0055 39.4599 80.9317 39.4599 79.8122C39.4599 78.6927 39.9042 77.619 40.6952 76.8267L43.2272 74.2914C44.0195 73.5004 45.0932 73.0562 46.2127 73.0562C47.3322 73.0562 48.406 73.5004 49.1982 74.2914L64.3484 89.4318L100.028 51.5158C100.796 50.7011 101.856 50.2244 102.974 50.1903C104.093 50.1562 105.18 50.5674 105.996 51.3337L108.596 53.7878C109.412 54.5556 109.889 55.6159 109.923 56.7356C109.957 57.8553 109.546 58.9427 108.778 59.7588L67.6086 103.532C67.221 103.945 66.7542 104.276 66.2361 104.505C65.718 104.734 65.1591 104.857 64.5927 104.866C64.0262 104.875 63.4638 104.769 62.9388 104.557C62.4138 104.344 61.9371 104.027 61.5368 103.626Z" fill="white"/>
</g>
</g>
</g>
<defs>
<filter id="filter0_i_3_2006" x="0.00256348" y="-0.00140381" width="149.997" height="153.999" filterUnits="userSpaceOnUse" color-interpolation-filters="sRGB">
<feFlood flood-opacity="0" result="BackgroundImageFix"/>
<feBlend mode="normal" in="SourceGraphic" in2="BackgroundImageFix" result="shape"/>
<feColorMatrix in="SourceAlpha" type="matrix" values="0 0 0 0 0 0 0 0 0 0 0 0 0 0 0 0 0 0 127 0" result="hardAlpha"/>
<feOffset dy="4"/>
<feGaussianBlur stdDeviation="2"/>
<feComposite in2="hardAlpha" operator="arithmetic" k2="-1" k3="1"/>
<feColorMatrix type="matrix" values="0 0 0 0 0 0 0 0 0 0 0 0 0 0 0 0 0 0 0.25 0"/>
<feBlend mode="normal" in2="shape" result="effect1_innerShadow_3_2006"/>
</filter>
<filter id="filter1_i_3_2006" x="39.4599" y="50.1884" width="70.4654" height="58.678" filterUnits="userSpaceOnUse" color-interpolation-filters="sRGB">
<feFlood flood-opacity="0" result="BackgroundImageFix"/>
<feBlend mode="normal" in="SourceGraphic" in2="BackgroundImageFix" result="shape"/>
<feColorMatrix in="SourceAlpha" type="matrix" values="0 0 0 0 0 0 0 0 0 0 0 0 0 0 0 0 0 0 127 0" result="hardAlpha"/>
<feOffset dy="4"/>
<feGaussianBlur stdDeviation="2"/>
<feComposite in2="hardAlpha" operator="arithmetic" k2="-1" k3="1"/>
<feColorMatrix type="matrix" values="0 0 0 0 0 0 0 0 0 0 0 0 0 0 0 0 0 0 0.25 0"/>
<feBlend mode="normal" in2="shape" result="effect1_innerShadow_3_2006"/>
</filter>
<clipPath id="clip0_3_2006">
<rect width="150" height="150" fill="white"/>
</clipPath>
</defs>
</svg>
