<svg width="286" height="130" viewBox="0 0 286 130" fill="none" xmlns="http://www.w3.org/2000/svg">
<path d="M24.771 90.8263L8.03385 90.7788C3.61119 90.767 0.0122035 94.2484 3.09953e-05 98.5558C-0.0121415 102.863 3.5625 106.368 7.98922 106.38L24.7263 106.432C29.1531 106.443 32.748 102.962 32.7642 98.6546C32.7723 94.3472 29.1977 90.8421 24.771 90.8263Z" fill="#4E6C16" fill-opacity="0.34"/>
<path d="M286 65.326C286.008 62.0145 284.665 58.8215 282.255 56.4939L244.833 20.2289C242.463 17.9093 239.237 16.621 235.91 16.6091L216.982 16.5538L217.002 9.6462C217.019 4.50106 212.73 0.335945 207.447 0.324089L98.1263 4.51412e-05C92.8394 -0.0157618 88.5628 4.1217 88.5465 9.26684L88.3599 68.5941L34.586 68.436C30.1634 68.4242 26.5684 71.9056 26.5522 76.213C26.54 80.5243 30.1147 84.0256 34.5374 84.0374L88.3112 84.1955L88.2869 91.0122L48.9658 90.8976C44.5431 90.8857 40.9441 94.3672 40.9279 98.6746C40.9157 102.982 44.4944 106.487 48.9171 106.499L117.026 106.701C116.795 107.87 116.665 109.076 116.661 110.316C116.628 120.97 125.494 129.656 136.433 129.692C147.372 129.727 156.25 121.089 156.282 110.435C156.286 109.178 156.165 107.953 155.933 106.768L220.699 106.957C220.459 108.143 220.33 109.368 220.326 110.625C220.293 121.278 229.159 129.968 240.098 130C251.033 130.032 259.914 121.393 259.947 110.743C259.951 109.49 259.825 108.261 259.594 107.072L266.082 107.092L276.303 107.123C281.581 107.139 285.87 102.99 285.886 97.8487L285.968 72.1111H285.959L286 65.326ZM136.474 120.038C130.984 120.022 126.569 115.699 126.59 110.352C126.606 105.045 131.045 100.706 136.534 100.722C141.984 100.737 146.435 105.1 146.418 110.411C146.406 115.754 141.923 120.053 136.474 120.038ZM240.142 120.342C234.648 120.326 230.238 116.003 230.254 110.656C230.275 105.349 234.709 101.01 240.199 101.026C245.648 101.042 250.063 105.408 250.043 110.712C250.03 116.062 245.592 120.358 240.142 120.342ZM265.903 57.6478L229.56 57.5411C228.741 57.5372 228.083 56.897 228.088 56.0987L228.173 28.7646C228.173 27.9624 228.834 27.3262 229.654 27.3302L236.58 27.3499C236.949 27.3499 237.359 27.512 237.643 27.753L266.938 55.178C267.916 56.0553 267.258 57.6478 265.903 57.6478Z" fill="#4E6C16" fill-opacity="0.34"/>
<path d="M100.67 53.119C101.681 53.6367 103.295 54.1504 104.935 54.1504C106.7 54.1504 107.637 53.4391 107.637 52.3564C107.637 51.325 106.83 50.7361 104.785 50.0446C101.956 49.0606 100.09 47.5392 100.09 45.1286C100.09 42.3032 102.537 40.1653 106.525 40.1653C108.469 40.1653 109.856 40.5328 110.867 41.0031L110.007 44.0024C109.349 43.6823 108.112 43.216 106.472 43.216C104.805 43.216 103.997 43.9787 103.997 44.8125C103.997 45.8676 104.931 46.3379 107.154 47.148C110.157 48.2308 111.544 49.7522 111.544 52.0877C111.544 54.8657 109.374 57.2249 104.703 57.2249C102.76 57.2249 100.841 56.7072 99.8831 56.1935L100.67 53.119Z" fill="#FCFCFE"/>
<path d="M118.028 40.4106V46.7769H124.362V40.4106H128.196V56.9763H124.362V50.0449H118.028V56.9763H114.194V40.4106H118.028Z" fill="#FCFCFE"/>
<path d="M135.415 40.4106V56.9763H131.58V40.4106H135.415Z" fill="#FCFCFE"/>
<path d="M138.746 40.6317C139.931 40.4341 141.598 40.2878 143.943 40.2878C146.317 40.2878 148.005 40.7305 149.141 41.6156C150.253 42.4495 150.959 43.8286 150.959 45.4488C150.959 47.069 150.427 48.4719 149.393 49.3808C148.082 50.5623 146.138 51.1274 143.866 51.1274C143.363 51.1274 142.909 51.1037 142.556 51.0286V56.976H138.746V40.6317ZM142.556 48.1557C142.884 48.2308 143.262 48.2545 143.842 48.2545C145.887 48.2545 147.149 47.2468 147.149 45.5753C147.149 44.0499 146.065 43.141 144.122 43.141C143.363 43.141 142.836 43.1884 142.556 43.2635V48.1557Z" fill="#FCFCFE"/>
<path d="M153.409 40.6317C154.594 40.4341 156.262 40.2878 158.607 40.2878C160.981 40.2878 162.669 40.7305 163.805 41.6156C164.916 42.4495 165.622 43.8286 165.622 45.4488C165.622 47.069 165.091 48.4719 164.056 49.3808C162.746 50.5623 160.802 51.1274 158.53 51.1274C158.027 51.1274 157.572 51.1037 157.219 51.0286V56.976H153.409V40.6317ZM157.219 48.1557C157.548 48.2308 157.925 48.2545 158.506 48.2545C160.551 48.2545 161.813 47.2468 161.813 45.5753C161.813 44.0499 160.725 43.141 158.786 43.141C158.027 43.141 157.499 43.1884 157.219 43.2635V48.1557Z" fill="#FCFCFE"/>
<path d="M171.928 40.4106V56.9763H168.094V40.4106H171.928Z" fill="#FCFCFE"/>
<path d="M175.259 56.9763V40.4106H179.751L183.285 46.4805C184.295 48.2271 185.277 50.2899 186.06 52.1591H186.109C185.882 49.9699 185.804 47.7332 185.804 45.2278V40.4106H189.338V56.9763H185.301L181.666 50.5863C180.655 48.816 179.519 46.6781 178.712 44.7378H178.61C178.736 46.9507 178.785 49.2862 178.785 51.9892V56.9802H175.259V56.9763Z" fill="#FCFCFE"/>
<path d="M206.879 56.2171C205.694 56.6083 203.446 57.1497 201.203 57.1497C198.099 57.1497 195.851 56.387 194.289 54.9367C192.751 53.4864 191.891 51.3248 191.891 48.8906C191.915 43.3858 196.029 40.2402 201.608 40.2402C203.803 40.2402 205.495 40.6591 206.327 41.0266L205.52 44.0497C204.587 43.6308 203.45 43.3384 201.584 43.3384C198.379 43.3384 195.932 45.0851 195.932 48.6969C195.932 52.1389 198.151 54.1306 201.308 54.1306C202.164 54.1306 202.874 54.0318 203.175 53.9093V50.4199H200.549V47.4956H206.883V56.2171H206.879Z" fill="#FCFCFE"/>
</svg>
