<svg width="170" height="23" viewBox="0 0 170 23" fill="none" xmlns="http://www.w3.org/2000/svg">
<path d="M3.2387 7.26476L10.3766 14.0041C10.9191 14.5164 11.0813 15.2867 10.7878 15.956C10.4942 16.6253 9.80245 17.0616 9.03509 17.0616H3.79441V21.0469C3.79441 22.0361 2.945 22.838 1.89739 22.838C0.84977 22.838 0.000356918 22.036 0.000356918 21.0469V15.2703C0.000356918 14.2812 0.84977 13.4792 1.89739 13.4792H4.45535L0.556248 9.79784C-0.184802 9.0984 -0.184802 7.96432 0.556248 7.26484C1.29706 6.5654 2.49785 6.56532 3.2387 7.26476ZM17.1924 0.000832868C18.2403 0.000832868 19.0897 0.802818 19.0897 1.79194C19.0897 2.78106 18.2403 3.58305 17.1927 3.58305H6.47738L10.3765 7.26444C11.1175 7.96388 11.1175 9.09796 10.3765 9.79743C10.0061 10.1472 9.52064 10.322 9.035 10.322C8.54936 10.322 8.06394 10.1472 7.69352 9.79743L0.555644 3.05811C0.0130729 2.54583 -0.149125 1.77546 0.144448 1.10616C0.438021 0.436864 1.12976 0.000587849 1.89713 0.000587849L17.1924 0.000832868ZM24.2553 6.04622C25.303 6.04622 26.1523 6.84821 26.1523 7.83733C26.1523 8.82645 25.3029 9.62844 24.2553 9.62844C21.444 9.62844 19.1568 11.7879 19.1568 14.4422V21.0471C19.1568 22.0363 18.3074 22.8383 17.2598 22.8383C16.2122 22.8383 15.3627 22.0363 15.3627 21.0471V7.83733C15.3627 6.84814 16.2122 6.04622 17.2598 6.04622C18.2162 6.04622 19.0049 6.715 19.1357 7.58367C20.5844 6.61667 22.3501 6.04622 24.2553 6.04622ZM34.746 6.04622C39.6495 6.04622 43.6385 9.81244 43.6385 14.4422C43.6385 15.4314 42.7891 16.2333 41.7415 16.2333H30.0138C30.7678 18.0032 32.6049 19.256 34.7463 19.256C36.1082 19.256 37.3885 18.7553 38.3514 17.8461C39.0924 17.1466 40.2933 17.1468 41.0343 17.8461C41.7754 18.5457 41.7751 19.6798 41.0343 20.3792C39.3545 21.965 37.1214 22.8383 34.7461 22.8383C29.8425 22.8383 25.8536 19.072 25.8536 14.4422C25.8536 9.81244 29.8424 6.04622 34.746 6.04622ZM30.0134 12.6511H39.4787C38.7246 10.8812 36.8875 9.62852 34.7461 9.62852C32.6047 9.62852 30.7674 10.8812 30.0134 12.6511ZM57.1311 12.6511C60.1057 12.6511 62.526 14.9362 62.526 17.7449C62.526 20.5535 60.1058 22.8386 57.1311 22.8386H50.1356C49.0879 22.8386 48.2385 22.0366 48.2385 21.0475C48.2385 20.0584 49.0879 19.2564 50.1356 19.2564H57.1311C58.0137 19.2564 58.7317 18.5784 58.7317 17.7451C58.7317 16.9118 58.0137 16.2338 57.1311 16.2338H50.1356C47.161 16.2338 44.7406 13.9488 44.7406 11.1401C44.7406 8.33143 47.1608 6.04639 50.1356 6.04639H57.1311C58.1787 6.04639 59.0281 6.84837 59.0281 7.83749C59.0281 8.82661 58.1787 9.6286 57.1311 9.6286H50.1356C49.253 9.6286 48.5349 10.3065 48.5349 11.1399C48.5349 11.9732 49.253 12.6511 50.1356 12.6511H57.1311ZM72.4973 6.09108C77.3878 6.09108 81.3666 9.84751 81.3666 14.4651V21.0476C81.3666 22.0368 80.5171 22.8387 79.4695 22.8387C78.4219 22.8387 77.5725 22.0368 77.5725 21.0476V14.4651C77.5725 11.8231 75.296 9.67379 72.4979 9.67379C69.6997 9.67379 67.4232 11.8232 67.4232 14.4651V21.0476C67.4232 22.0368 66.5738 22.8387 65.5262 22.8387C64.4786 22.8387 63.6292 22.0368 63.6292 21.0476V1.79243C63.6292 0.803242 64.4786 0.00132213 65.5262 0.00132213C66.5738 0.00132213 67.4232 0.803307 67.4232 1.79243V7.60341C68.8622 6.65182 70.611 6.09108 72.4973 6.09108ZM111.094 16.2324C111.094 16.2328 111.094 16.2333 111.094 16.2337V21.047C111.094 22.0362 110.245 22.8381 109.197 22.8381C108.149 22.8381 107.3 22.0361 107.3 21.047V16.975L95.7986 6.11583V21.0466C95.7986 22.0358 94.9492 22.8377 93.9016 22.8377C92.854 22.8377 92.0046 22.0357 92.0046 21.0466V1.7914C92.0046 1.06687 92.4667 0.413734 93.1755 0.136586C93.8848 -0.140375 94.7006 0.012554 95.2429 0.524822L101.549 6.47886L107.855 0.524822C108.398 0.0125458 109.214 -0.141052 109.923 0.136586C110.631 0.413767 111.094 1.06688 111.094 1.7914L111.094 16.2324ZM104.232 9.01264L107.3 11.9089V6.11604L104.232 9.01264ZM128.438 6.04622C129.486 6.04622 130.335 6.84821 130.335 7.83733V21.0471C130.335 22.0363 129.486 22.8383 128.438 22.8383C127.482 22.8383 126.693 22.1697 126.562 21.3008C125.113 22.2678 123.348 22.8383 121.443 22.8383C116.539 22.8383 112.55 19.072 112.55 14.4422C112.55 9.81244 116.539 6.04622 121.443 6.04622C123.348 6.04622 125.113 6.6167 126.562 7.58367C126.693 6.71471 127.482 6.04622 128.438 6.04622ZM121.443 19.256C124.254 19.256 126.541 17.0966 126.541 14.4422C126.541 11.7879 124.254 9.62844 121.443 9.62844C118.631 9.62844 116.344 11.7879 116.344 14.4422C116.344 17.0966 118.631 19.256 121.443 19.256ZM138.677 6.04622C142.478 6.04622 145.57 8.96632 145.57 12.5552V21.0475C145.57 22.0367 144.721 22.8386 143.673 22.8386C142.626 22.8386 141.776 22.0366 141.776 21.0475V12.5552C141.776 10.9416 140.386 9.62868 138.677 9.62868C136.967 9.62868 135.577 10.9413 135.577 12.5552V21.0475C135.577 22.0367 134.728 22.8386 133.68 22.8386C132.633 22.8386 131.783 22.0366 131.783 21.0475V7.83766C131.783 6.84847 132.633 6.04655 133.68 6.04655C134.359 6.04655 134.953 6.38438 135.288 6.89064C136.29 6.35442 137.446 6.04622 138.677 6.04622ZM162.883 0.000832868C163.93 0.000832868 164.78 0.802818 164.78 1.79194V21.0471C164.78 22.0363 163.93 22.8383 162.883 22.8383C161.93 22.8383 161.144 22.1746 161.008 21.3106C159.565 22.2716 157.807 22.8383 155.911 22.8383C151.021 22.8383 147.042 19.0818 147.042 14.4643C147.042 9.8467 151.02 6.09027 155.911 6.09027C157.797 6.09027 159.547 6.65093 160.986 7.60251V1.79129C160.986 0.8021 161.835 0.000832868 162.883 0.000832868ZM155.911 19.256C158.71 19.256 160.986 17.1066 160.986 14.4647C160.986 11.8229 158.709 9.67346 155.911 9.67346C153.113 9.67346 150.837 11.8229 150.837 14.4647C150.837 17.1066 153.113 19.256 155.911 19.256ZM168.103 6.04622C169.151 6.04622 170 6.84821 170 7.83733V21.0471C170 22.0363 169.151 22.8383 168.103 22.8383C167.055 22.8383 166.206 22.0363 166.206 21.0471V7.83733C166.206 6.84814 167.055 6.04622 168.103 6.04622ZM166.351 2.47706C166.303 2.3696 166.268 2.25538 166.244 2.14119C166.218 2.027 166.206 1.90832 166.206 1.79191C166.206 1.67549 166.218 1.55681 166.244 1.44262C166.268 1.32844 166.303 1.21425 166.351 1.10678C166.398 0.999317 166.457 0.894086 166.526 0.797802C166.595 0.699291 166.673 0.607501 166.761 0.524666C166.848 0.441832 166.946 0.367944 167.05 0.303013C167.152 0.238083 167.263 0.182105 167.377 0.137343C167.491 0.0925821 167.612 0.0589981 167.733 0.0365979C168.35 -0.0820833 169.004 0.110484 169.445 0.524699C169.531 0.607533 169.611 0.699323 169.68 0.797834C169.749 0.894119 169.808 0.99935 169.855 1.10682C169.903 1.21428 169.938 1.32847 169.962 1.44266C169.988 1.55684 170 1.67553 170 1.79194C170 1.90835 169.988 2.02703 169.962 2.14122C169.938 2.25541 169.903 2.3696 169.855 2.47706C169.808 2.58453 169.749 2.68976 169.68 2.78604C169.611 2.88455 169.531 2.97634 169.445 3.05918C169.357 3.14201 169.26 3.2159 169.156 3.28083C169.054 3.34576 168.942 3.40174 168.829 3.4465C168.715 3.49126 168.594 3.52485 168.473 3.54725C168.352 3.57188 168.226 3.58306 168.103 3.58306C167.98 3.58306 167.854 3.57188 167.733 3.54725C167.612 3.52485 167.491 3.49127 167.377 3.4465C167.263 3.40173 167.152 3.34576 167.05 3.28083C166.946 3.2159 166.849 3.14201 166.761 3.05918C166.673 2.97634 166.595 2.88455 166.526 2.78604C166.457 2.68976 166.398 2.58453 166.351 2.47706Z" fill="#FCFCFE"/>
</svg>
