<svg width="15" height="14" viewBox="0 0 15 14" fill="none" xmlns="http://www.w3.org/2000/svg">
<path d="M7.60221 13.7488C7.55429 13.7524 7.50617 13.7526 7.45822 13.7494L6.42832 13.6796C6.38019 13.6764 6.33235 13.6696 6.28519 13.6595L5.28164 13.4432C5.23393 13.433 5.18704 13.4192 5.14135 13.4021L4.19022 13.0457C4.14369 13.0283 4.09852 13.0074 4.05509 12.9833L3.18066 12.4971C3.13621 12.4724 3.09371 12.4443 3.05353 12.4132L2.27744 11.811C2.23618 11.779 2.19749 11.7438 2.16173 11.7058L1.50235 11.0043C1.46561 10.9652 1.43206 10.9232 1.40205 10.8788L0.874115 10.0965C0.843339 10.0509 0.816376 10.0028 0.793502 9.9528L0.407969 9.10951C0.384624 9.05844 0.365619 9.0055 0.351155 8.95125L0.115428 8.06708C0.10077 8.0121 0.0908301 7.95597 0.0857138 7.8993L0.00401248 6.9944C-0.00112787 6.93747 -0.00137961 6.8802 0.00326004 6.82323L0.0770025 5.91764C0.0816204 5.86093 0.0910667 5.80472 0.105241 5.74961L0.333185 4.8634C0.347172 4.80902 0.365711 4.75592 0.388606 4.70465L0.766709 3.858C0.789143 3.80777 0.815682 3.75947 0.846056 3.7136L1.36709 2.92673C1.39672 2.882 1.42989 2.83972 1.46629 2.8003L2.11947 2.09305C2.1549 2.05469 2.19328 2.01916 2.23425 1.98679L3.00502 1.37786C3.04493 1.34634 3.08718 1.3179 3.13141 1.29279L4.00153 0.798971C4.04475 0.774445 4.08973 0.753173 4.13611 0.735331L5.08406 0.370621C5.12961 0.353098 5.17637 0.338931 5.22399 0.328232L6.2256 0.103185C6.27267 0.0926095 6.32044 0.0854522 6.36855 0.0817685L7.3978 0.0029651C7.44571 -0.000703432 7.49383 -0.000914962 7.54178 0.00233216L8.57168 0.0720837C8.61982 0.0753443 8.66765 0.0820813 8.71481 0.0922428L9.71837 0.308475C9.76607 0.318755 9.81296 0.33251 9.85866 0.349632L10.8098 0.705993C10.8563 0.723427 10.9015 0.744304 10.9449 0.768449L11.8193 1.2546C11.8638 1.27932 11.9063 1.30738 11.9465 1.33856L12.7226 1.94068C12.7638 1.97269 12.8025 2.00788 12.8383 2.04593L13.4977 2.74741C13.5344 2.78651 13.5679 2.82849 13.598 2.87297L14.1259 3.65522C14.1567 3.70082 14.1836 3.74888 14.2065 3.79892L14.592 4.64221C14.6154 4.69328 14.6344 4.74621 14.6488 4.80047L14.8846 5.68464C14.8992 5.73962 14.9092 5.79575 14.9143 5.85242L14.996 6.75732C15.0011 6.81425 15.0014 6.87152 14.9967 6.92849L14.923 7.83408C14.9184 7.89079 14.9089 7.947 14.8948 8.00211L14.6668 8.88832C14.6528 8.9427 14.6343 8.9958 14.6114 9.04707L14.2333 9.89372C14.2109 9.94395 14.1843 9.99225 14.1539 10.0381L13.6329 10.825C13.6033 10.8697 13.5701 10.912 13.5337 10.9514L12.8805 11.6587C12.8451 11.697 12.8067 11.7326 12.7658 11.7649L11.995 12.3739C11.9551 12.4054 11.9128 12.4338 11.8686 12.4589L10.9985 12.9527C10.9553 12.9773 10.9103 12.9985 10.8639 13.0164L9.91594 13.3811C9.8704 13.3986 9.82363 13.4128 9.77602 13.4235L8.77441 13.6485C8.72734 13.6591 8.67956 13.6663 8.63146 13.67L7.60221 13.7488Z" fill="#EBEBEB"/>
</svg>
