<svg width="16" height="16" viewBox="0 0 16 16" fill="none" xmlns="http://www.w3.org/2000/svg">
<path d="M11.6923 0C11.6808 0 11.6654 0 11.6538 0C10.1269 0 8.77691 0.807691 7.99999 2C7.22307 0.807691 5.87307 0 4.34615 0C4.33461 0 4.31922 0 4.30769 0C1.92692 0.0230769 0 1.95769 0 4.34615C0 5.76922 0.623076 7.78845 1.83846 9.44999C4.15384 12.6154 7.99999 15.3846 7.99999 15.3846C7.99999 15.3846 11.8461 12.6154 14.1615 9.44999C15.3769 7.78845 16 5.76922 16 4.34615C16 1.95769 14.0731 0.0230769 11.6923 0Z" fill="black"/>
</svg>
