<svg width="24" height="24" viewBox="0 0 24 24" fill="none" xmlns="http://www.w3.org/2000/svg">
<path d="M15 5.99997H9V6.49997C9.00064 6.63169 8.97524 6.76225 8.92527 6.88414C8.87531 7.00602 8.80175 7.11683 8.70883 7.21021C8.6159 7.30358 8.50545 7.37767 8.38381 7.42823C8.26217 7.47879 8.13173 7.50481 8 7.50481C7.86827 7.50481 7.73784 7.47879 7.6162 7.42823C7.49456 7.37767 7.3841 7.30358 7.29118 7.21021C7.19826 7.11683 7.1247 7.00602 7.07473 6.88414C7.02477 6.76225 6.99937 6.63169 7.00001 6.49997V5.99997H4.99999V8.49998H19V5.99997H17V6.49997C16.9987 6.76434 16.8928 7.01745 16.7054 7.20395C16.518 7.39044 16.2644 7.49513 16 7.49513C15.7356 7.49513 15.482 7.39044 15.2946 7.20395C15.1072 7.01745 15.0013 6.76434 15 6.49997V5.99997ZM17 3.99998H19C19.2626 3.99998 19.5227 4.05171 19.7654 4.15222C20.008 4.25273 20.2285 4.40005 20.4142 4.58577C20.5999 4.77148 20.7472 4.99196 20.8478 5.23461C20.9483 5.47726 21 5.73733 21 5.99997V18C21 18.5304 20.7893 19.0391 20.4142 19.4142C20.0391 19.7892 19.5304 20 19 20H4.99999C4.46956 20 3.96086 19.7892 3.58578 19.4142C3.21071 19.0391 3 18.5304 3 18V5.99997C3 5.46954 3.21071 4.96084 3.58578 4.58577C3.96086 4.21069 4.46956 3.99998 4.99999 3.99998H7.00001V3.49997C6.99937 3.36824 7.02477 3.23768 7.07473 3.1158C7.1247 2.99391 7.19826 2.8831 7.29118 2.78973C7.3841 2.69635 7.49456 2.62226 7.6162 2.5717C7.73784 2.52114 7.86827 2.49512 8 2.49512C8.13173 2.49512 8.26217 2.52114 8.38381 2.5717C8.50545 2.62226 8.6159 2.69635 8.70883 2.78973C8.80175 2.8831 8.87531 2.99391 8.92527 3.1158C8.97524 3.23768 9.00064 3.36824 9 3.49997V3.99998H15V3.49997C15.0013 3.23559 15.1072 2.98248 15.2946 2.79599C15.482 2.60949 15.7356 2.5048 16 2.5048C16.2644 2.5048 16.518 2.60949 16.7054 2.79599C16.8928 2.98248 16.9987 3.23559 17 3.49997V3.99998ZM19 10.5H4.99999V18H19V10.5Z" fill="#4E6C16"/>
</svg>
