<svg width="121" height="123" viewBox="0 0 121 123" fill="none" xmlns="http://www.w3.org/2000/svg">
<path d="M1.65591 104.228C6.2916 115.541 13.8502 117.895 19.1644 115.541C29.442 110.987 56.1396 105.899 83.559 117.859C119.874 133.698 127.601 109.8 116.011 85.6269C104.421 61.4535 100.493 37.0076 113.854 23.5393C127.215 10.071 109.73 -10.9983 78.6801 10.9334C58.6142 25.1064 43.8882 21.9505 35.9803 17.9439C28.5274 14.1677 20.2389 10.22 12.4733 13.3024C3.0507 17.0427 -0.66211 25.1519 13.674 43.268C33.9895 68.94 -8.73563 78.8724 1.65591 104.228Z" fill="#F9F9F9"/>
<path d="M20.5309 49.1228H92.6764V104.607C92.6764 104.72 92.6315 104.828 92.5516 104.908C92.4717 104.988 92.3634 105.033 92.2504 105.033H20.957C20.844 105.033 20.7356 104.988 20.6557 104.908C20.5758 104.828 20.5309 104.72 20.5309 104.607V49.1228Z" fill="#F0F0F0"/>
<path d="M74.5775 27.3798H41.0313L20.5309 49.1227H92.6764L74.5775 27.3798Z" fill="#DDDDDD"/>
<path d="M27.3643 18.6826L41.0312 27.3798L20.5308 49.1227L5.00016 37.3194L27.3643 18.6826Z" fill="#F0F0F0"/>
<path d="M88.2443 18.6826L74.5774 27.3798L92.6763 49.1227L110.608 37.3194L88.2443 18.6826Z" fill="#F0F0F0"/>
<path d="M49.8447 19.1274C50.2304 18.9445 50.5304 18.6196 50.6822 18.2207C50.8339 17.8218 50.8256 17.3796 50.659 16.9867L44.5108 2.48923C44.4237 2.28388 44.296 2.09826 44.1354 1.94353C43.9747 1.7888 43.7844 1.66816 43.576 1.58886C43.3675 1.50956 43.1451 1.47324 42.9222 1.48209C42.6994 1.49093 42.4806 1.54475 42.279 1.64032L41.0946 2.20197C40.893 2.29753 40.7129 2.43286 40.565 2.59982C40.4171 2.76678 40.3045 2.96192 40.2339 3.17352C40.1634 3.38511 40.1363 3.60879 40.1545 3.8311C40.1726 4.05341 40.2354 4.26976 40.3393 4.46715L47.6719 18.4029C47.8706 18.7806 48.2077 19.0669 48.6126 19.2019C49.0176 19.3369 49.459 19.3102 49.8447 19.1274Z" fill="#DDDDDD"/>
<path d="M57.5529 17.7219C57.832 17.702 58.0926 17.575 58.2803 17.3675C58.4681 17.16 58.5683 16.8879 58.5602 16.6082L58.2565 6.28731C58.2522 6.14112 58.2183 5.99731 58.157 5.86452C58.0957 5.73174 58.0082 5.61271 57.8997 5.51461C57.7913 5.41652 57.6641 5.34137 57.5258 5.29368C57.3875 5.24599 57.2411 5.22675 57.0952 5.23712L56.2377 5.29822C56.0918 5.3086 55.9496 5.34836 55.8195 5.41511C55.6894 5.48185 55.5742 5.57421 55.4807 5.68662C55.3872 5.79903 55.3174 5.92919 55.2755 6.06926C55.2336 6.20933 55.2204 6.35643 55.2368 6.50171L56.398 16.7616C56.4294 17.0397 56.5671 17.295 56.7824 17.474C56.9976 17.6529 57.2737 17.7418 57.5529 17.7219Z" fill="#DDDDDD"/>
<path d="M63.5035 21.5372C64.2713 21.9811 65.3491 21.5737 65.9469 20.6136L76.5617 3.56613C77.1958 2.54773 77.0455 1.30648 76.2312 0.835672L75.0962 0.179519C74.2818 -0.291378 73.1311 0.197584 72.5649 1.25519L63.085 18.9587C62.5512 19.9558 62.7357 21.0932 63.5035 21.5372Z" fill="#DDDDDD"/>
</svg>
