<svg width="16" height="16" viewBox="0 0 16 16" fill="none" xmlns="http://www.w3.org/2000/svg">
<path d="M9.68656 6.31337L6.31323 9.6867C5.8799 9.25337 5.61323 8.66003 5.61323 8.00003C5.61323 6.68003 6.6799 5.61337 7.9999 5.61337C8.6599 5.61337 9.25323 5.88004 9.68656 6.31337Z" stroke="#1F1F1F" stroke-width="0.988201" stroke-linecap="round" stroke-linejoin="round"/>
<path d="M11.88 3.84666C10.7133 2.96666 9.37998 2.48666 7.99999 2.48666C5.64665 2.48666 3.45332 3.87333 1.92665 6.27333C1.32665 7.21333 1.32665 8.79333 1.92665 9.73333C2.45332 10.56 3.06665 11.2733 3.73332 11.8467" stroke="#1F1F1F" stroke-width="0.988201" stroke-linecap="round" stroke-linejoin="round"/>
<path d="M5.61323 13.02C6.37323 13.34 7.1799 13.5134 7.9999 13.5134C10.3532 13.5134 12.5466 12.1267 14.0732 9.72671C14.6732 8.78671 14.6732 7.20671 14.0732 6.26671C13.8532 5.92004 13.6132 5.59337 13.3666 5.28671" stroke="#1F1F1F" stroke-width="0.988201" stroke-linecap="round" stroke-linejoin="round"/>
<path d="M10.3403 8.4668C10.167 9.4068 9.4003 10.1735 8.4603 10.3468" stroke="#1F1F1F" stroke-width="0.988201" stroke-linecap="round" stroke-linejoin="round"/>
<path d="M6.31336 9.68668L1.33336 14.6667" stroke="#1F1F1F" stroke-width="0.988201" stroke-linecap="round" stroke-linejoin="round"/>
<path d="M14.6668 1.33334L9.68681 6.31334" stroke="#1F1F1F" stroke-width="0.988201" stroke-linecap="round" stroke-linejoin="round"/>
</svg>
