<svg width="24" height="24" viewBox="0 0 24 24" fill="none" xmlns="http://www.w3.org/2000/svg">
<path fill-rule="evenodd" clip-rule="evenodd" d="M16.9834 2.21943C15.8964 1.76917 14.8412 2.05019 14.0906 2.71345C13.3575 3.36131 12.9095 4.369 12.9095 5.43963V6.3176C12.9095 8.9536 15.0464 11.0905 17.6824 11.0905H18.5604C19.631 11.0905 20.6387 10.6425 21.2865 9.90938C21.9498 9.15881 22.2308 8.10358 21.7806 7.01657C21.3351 5.94114 20.6822 4.96399 19.8591 4.14089C19.036 3.3178 18.0589 2.66488 16.9834 2.21943ZM14.2732 5.43963C14.2732 4.73572 14.5711 4.10874 14.9936 3.73533C15.3988 3.37731 15.9091 3.25048 16.4616 3.47931C17.3715 3.85623 18.1984 4.4087 18.8948 5.10516C19.5913 5.80163 20.1438 6.62845 20.5207 7.53843C20.7495 8.09088 20.6227 8.60123 20.2647 9.00638C19.8913 9.42894 19.2643 9.72682 18.5604 9.72682H17.6824C15.7995 9.72682 14.2732 8.20046 14.2732 6.3176V5.43963Z" fill="#5E5F60"/>
<path fill-rule="evenodd" clip-rule="evenodd" d="M11.5458 6.77216C11.5458 5.44543 10.4215 4.14857 8.91034 4.49004C7.85556 4.72838 6.84776 5.15898 5.93941 5.76592C4.48174 6.7399 3.34563 8.12427 2.67473 9.74394C2.00384 11.3636 1.8283 13.1459 2.17032 14.8653C2.51234 16.5847 3.35655 18.1642 4.5962 19.4038C5.83585 20.6434 7.41525 21.4877 9.13469 21.8297C10.8541 22.1717 12.6364 21.9962 14.2561 21.3253C15.8757 20.6544 17.2601 19.5183 18.2341 18.0606C18.841 17.1522 19.2716 16.1444 19.51 15.0897C19.8514 13.5785 18.5546 12.4542 17.2278 12.4542H15.4096C13.2757 12.4542 11.5458 10.7243 11.5458 8.59041V6.77216ZM9.2109 5.82019C9.65874 5.719 10.1821 6.09052 10.1821 6.77216V8.59041C10.1821 11.4775 12.5225 13.8179 15.4096 13.8179H17.2278C17.9095 13.8179 18.281 14.3413 18.1798 14.7891C17.9781 15.6816 17.6138 16.5344 17.1002 17.303C16.2761 18.5364 15.1047 19.4977 13.7342 20.0654C12.3637 20.6331 10.8556 20.7816 9.40073 20.4922C7.94582 20.2028 6.6094 19.4885 5.56047 18.4395C4.51154 17.3906 3.79721 16.0542 3.50781 14.5993C3.21841 13.1444 3.36694 11.6363 3.93462 10.2658C4.50229 8.89531 5.46362 7.72392 6.69704 6.89978C7.46563 6.38622 8.31837 6.02187 9.2109 5.82019Z" fill="#5E5F60"/>
</svg>
