<svg width="20" height="20" viewBox="0 0 20 20" fill="none" xmlns="http://www.w3.org/2000/svg">
<path d="M15.6107 11.219C16.6884 11.219 17.5836 12.1031 17.3461 13.1543C17.11 14.1993 16.6834 15.1976 16.0821 16.0975C15.1173 17.5415 13.7459 18.667 12.1413 19.3316C10.5368 19.9962 8.77126 20.1701 7.06791 19.8313C5.36457 19.4925 3.79994 18.6561 2.5719 17.4281C1.34385 16.2001 0.507545 14.6354 0.168728 12.9321C-0.170088 11.2287 0.00380468 9.46317 0.668418 7.85865C1.33303 6.25414 2.45851 4.88273 3.90254 3.91786C4.80239 3.31661 5.80074 2.89004 6.84566 2.65393C7.89685 2.41639 8.781 3.31164 8.781 4.38933V6.34066C8.781 9.03489 10.9651 11.219 13.6593 11.219H15.6107Z" fill="#4E6C16"/>
<path d="M11.708 2.95927C11.708 1.05484 13.3089 -0.549381 15.0683 0.179411C16.1337 0.620697 17.1017 1.2675 17.9171 2.08289C18.7325 2.89828 19.3793 3.86629 19.8206 4.93165C20.5494 6.69111 18.9452 8.292 17.0407 8.292H16.0985C13.6737 8.292 11.708 6.3263 11.708 3.9015V2.95927Z" fill="#4E6C16"/>
</svg>
