<svg width="18" height="18" viewBox="0 0 18 18" fill="none" xmlns="http://www.w3.org/2000/svg">
<path fill-rule="evenodd" clip-rule="evenodd" d="M9.12652 2.75043C6.70967 2.75043 4.75043 4.70967 4.75043 7.12652C4.75043 8.92213 5.55188 10.6803 6.56554 12.1724C7.47275 13.5077 8.50355 14.5618 9.12652 15.1457C9.74949 14.5618 10.7803 13.5077 11.6875 12.1724C12.7012 10.6803 13.5026 8.92213 13.5026 7.12652C13.5026 4.70967 11.5434 2.75043 9.12652 2.75043ZM3 7.12652C3 3.74294 5.74294 1 9.12652 1C12.5101 1 15.253 3.74294 15.253 7.12652C15.253 9.42199 14.2413 11.5282 13.1354 13.156C12.0222 14.7946 10.7547 16.0346 10.1141 16.6161C9.5503 17.128 8.70273 17.128 8.13897 16.6161C7.49837 16.0346 6.23083 14.7946 5.11765 13.156C4.01172 11.5282 3 9.42199 3 7.12652ZM9.12652 6.0325C8.52231 6.0325 8.0325 6.52231 8.0325 7.12652C8.0325 7.73073 8.52231 8.22054 9.12652 8.22054C9.73073 8.22054 10.2205 7.73073 10.2205 7.12652C10.2205 6.52231 9.73073 6.0325 9.12652 6.0325ZM6.28206 7.12652C6.28206 5.55557 7.55557 4.28206 9.12652 4.28206C10.6975 4.28206 11.971 5.55557 11.971 7.12652C11.971 8.69747 10.6975 9.97097 9.12652 9.97097C7.55557 9.97097 6.28206 8.69747 6.28206 7.12652Z" fill="#F55951"/>
</svg>
