<svg width="17" height="18" viewBox="0 0 17 18" fill="none" xmlns="http://www.w3.org/2000/svg">
<path d="M10.625 4.49998H6.375V4.87497C6.37545 4.97377 6.35746 5.07169 6.32207 5.1631C6.28667 5.25452 6.23457 5.33762 6.16875 5.40765C6.10293 5.47768 6.02469 5.53325 5.93853 5.57117C5.85237 5.60909 5.75998 5.62861 5.66667 5.62861C5.57336 5.62861 5.48097 5.60909 5.39481 5.57117C5.30865 5.53325 5.23041 5.47768 5.16459 5.40765C5.09877 5.33762 5.04666 5.25452 5.01127 5.1631C4.97588 5.07169 4.95789 4.97377 4.95834 4.87497V4.49998H3.54166V6.37499H13.4583V4.49998H12.0417V4.87497C12.0408 5.07326 11.9657 5.26309 11.833 5.40296C11.7002 5.54283 11.5206 5.62135 11.3333 5.62135C11.1461 5.62135 10.9664 5.54283 10.8337 5.40296C10.7009 5.26309 10.6259 5.07326 10.625 4.87497V4.49998ZM12.0417 2.99999H13.4583C13.6444 2.99999 13.8286 3.03878 14.0005 3.11417C14.1723 3.18955 14.3285 3.30004 14.4601 3.43932C14.5916 3.57861 14.696 3.74397 14.7672 3.92596C14.8384 4.10794 14.875 4.303 14.875 4.49998V13.5C14.875 13.8978 14.7257 14.2793 14.4601 14.5606C14.1944 14.8419 13.8341 15 13.4583 15H3.54166C3.16594 15 2.80561 14.8419 2.53993 14.5606C2.27425 14.2793 2.125 13.8978 2.125 13.5V4.49998C2.125 4.10216 2.27425 3.72063 2.53993 3.43932C2.80561 3.15802 3.16594 2.99999 3.54166 2.99999H4.95834V2.62497C4.95789 2.52618 4.97588 2.42826 5.01127 2.33685C5.04666 2.24543 5.09877 2.16232 5.16459 2.09229C5.23041 2.02227 5.30865 1.9667 5.39481 1.92878C5.48097 1.89086 5.57336 1.87134 5.66667 1.87134C5.75998 1.87134 5.85237 1.89086 5.93853 1.92878C6.02469 1.9667 6.10293 2.02227 6.16875 2.09229C6.23457 2.16232 6.28667 2.24543 6.32207 2.33685C6.35746 2.42826 6.37545 2.52618 6.375 2.62497V2.99999H10.625V2.62497C10.6259 2.42669 10.7009 2.23686 10.8337 2.09699C10.9664 1.95712 11.1461 1.8786 11.3333 1.8786C11.5206 1.8786 11.7002 1.95712 11.833 2.09699C11.9657 2.23686 12.0408 2.42669 12.0417 2.62497V2.99999ZM13.4583 7.87498H3.54166V13.5H13.4583V7.87498Z" fill="white"/>
</svg>
